<?xml version="1.0" standalone="no"?>
<!DOCTYPE svg PUBLIC "-//W3C//DTD SVG 20010904//EN"
 "http://www.w3.org/TR/2001/REC-SVG-20010904/DTD/svg10.dtd">
<svg version="1.0" xmlns="http://www.w3.org/2000/svg"
 width="353.000000pt" height="353.000000pt" viewBox="0 0 353.000000 353.000000"
 preserveAspectRatio="xMidYMid meet">
<metadata>
Created by potrace 1.14, written by Peter Selinger 2001-2017
</metadata>
<g transform="translate(0.000000,353.000000) scale(0.100000,-0.100000)"
fill="#000000" stroke="none">
<path d="M1608 3525 c-1 -1 -30 -6 -63 -10 -174 -20 -354 -72 -523 -151 -107
-50 -252 -134 -252 -146 0 -4 -5 -8 -11 -8 -16 0 -180 -132 -223 -180 -20 -22
-40 -40 -46 -40 -5 0 -10 -3 -10 -7 0 -5 -21 -30 -46 -58 -25 -27 -52 -62 -62
-77 -9 -16 -20 -28 -24 -28 -4 0 -8 -6 -8 -14 0 -8 -4 -16 -8 -18 -12 -4 -72
-95 -72 -107 0 -6 -4 -11 -10 -11 -5 0 -10 -6 -10 -14 0 -8 -6 -21 -13 -28
-11 -12 -106 -210 -112 -233 -1 -5 -8 -23 -14 -40 -7 -16 -14 -37 -16 -45 -2
-8 -17 -69 -34 -135 -41 -164 -43 -185 -46 -385 -2 -179 11 -307 50 -460 20
-83 64 -211 77 -227 6 -7 8 -13 5 -13 -10 0 92 -199 133 -262 22 -32 40 -63
40 -68 0 -5 3 -10 8 -12 4 -2 31 -35 61 -74 61 -81 296 -314 316 -314 2 0 30
-19 61 -43 31 -23 60 -42 63 -42 3 -1 26 -14 51 -30 135 -86 380 -179 569
-215 133 -25 411 -33 541 -16 30 4 66 8 80 10 47 7 195 45 275 71 159 52 406
187 535 292 56 46 243 235 275 278 17 22 32 42 35 45 8 8 80 110 80 114 0 2
23 42 50 90 28 48 50 88 50 90 0 2 8 21 17 42 9 22 17 41 18 44 0 3 4 10 8 17
17 27 78 230 91 303 3 19 8 46 11 60 19 96 27 403 12 505 -4 28 -9 66 -12 85
-17 124 -68 289 -131 425 -15 33 -28 62 -29 65 -12 34 -26 59 -112 190 -82
125 -99 146 -223 271 -97 97 -245 218 -308 250 -15 8 -29 17 -32 20 -3 3 -61
33 -130 66 -108 53 -166 75 -315 123 -32 10 -118 28 -170 36 -16 2 -41 7 -55
10 -26 6 -386 15 -392 9z"/>
</g>
</svg>
